# xmcd
#
# Track frame offsets: 
#        150
#        14483
#        28990
#        45295
#        63376
#        84835
#        97768
#        112227
#        134683
#        151608
#        170824
#        187609
#
# Disc length: 2706 seconds
#
# Revision: 0
# Processed by: cddbd v1.5.2PL0 Copyright (c) Steve Scherf et al.
# Submitted via: ExactAudioCopy v1.3
#
DISCID=900a900c
DTITLE=Dr. Wu' And Friends - Texas Blues Project  Vol. 2
DYEAR=2010
DGENRE=Electric Blues
TTITLE0=That Ain`t Right
TTITLE1=Can`t Keep A Good Man Down
TTITLE2=Even A Wolfman Gets The Blues
TTITLE3=Bryant Irvin Road
TTITLE4=Boogie In The Rain
TTITLE5=Fort Worth Bound
TTITLE6=Whay Is It So Hard ToSay Goodby
TTITLE7=Bo Diddley Tribute
TTITLE8=You Give Me The Blues
TTITLE9=My Man`s Specialty
TTITLE10=Rockin' Chuck Berry Blues
TTITLE11=Slow Rollin' Train
EXTD=
EXTT0=
EXTT1=
EXTT2=
EXTT3=
EXTT4=
EXTT5=
EXTT6=
EXTT7=
EXTT8=
EXTT9=
EXTT10=
EXTT11=
PLAYORDER=
